<?xml version="1.0" encoding="utf-8"?>
<!-- Generator: Adobe Illustrator 22.1.0, SVG Export Plug-In . SVG Version: 6.00 Build 0)  -->
<svg version="1.1" id="Capa_1" xmlns="http://www.w3.org/2000/svg" xmlns:xlink="http://www.w3.org/1999/xlink" x="0px" y="0px"
	 viewBox="0 0 16 16" style="enable-background:new 0 0 16 16;" xml:space="preserve">
<style type="text/css">
	.st0{fill:#178E00;enable-background:new    ;}
	.st1{fill:#FFFFFF;}
</style>
<g>
	<path class="st0" d="M8,0C3.7,0,0,3.6,0,8c0,4.4,3.6,8,8,8c4.4,0,8-3.6,8-8C16,3.7,12.4,0,8,0z M6.4,12c-1.1-1.1-2.3-2.3-3.6-3.6
		c0.2-0.2,0.6-0.5,1.2-1C4.6,8.2,5.6,9.1,6.4,10c2.1-2.1,3.9-3.9,5.9-5.9c0.5,0.5,0.8,0.8,1,1C10.9,7.5,8.6,9.8,6.4,12z"/>
	<path class="st1" d="M13.3,5.1C10.9,7.5,8.6,9.8,6.4,12c-1.1-1.1-2.3-2.3-3.6-3.6c0.2-0.2,0.6-0.5,1.2-1C4.6,8.2,5.6,9.1,6.4,10
		c2.1-2.1,3.9-3.9,5.9-5.9C12.7,4.6,13,4.9,13.3,5.1z"/>
</g>
</svg>
